<svg width="40" height="40" viewBox="0 0 40 40" fill="none" xmlns="http://www.w3.org/2000/svg">
<rect x="0.5" y="0.5" width="39" height="39" rx="7.5" stroke="#666666"/>
<path d="M24.2224 11.8923C24.5832 11.7429 24.9698 11.666 25.3602 11.666C25.7506 11.666 26.1372 11.7429 26.4979 11.8923C26.8586 12.0417 27.1863 12.2607 27.4624 12.5368C27.7385 12.8129 27.9575 13.1406 28.1069 13.5013C28.2563 13.862 28.3332 14.2486 28.3332 14.639C28.3332 15.0294 28.2563 15.416 28.1069 15.7767C27.9575 16.1374 27.7385 16.4652 27.4624 16.7413L27.0306 17.1731L22.8262 12.9686L23.2579 12.5368C23.534 12.2607 23.8618 12.0417 24.2224 11.8923Z" fill="#666666"/>
<path d="M21.6477 14.1484L13.0453 22.7508C12.9428 22.8533 12.8688 22.9809 12.8306 23.1208L11.6959 27.2814C11.6172 27.5699 11.6991 27.8785 11.9106 28.0899C12.1221 28.3014 12.4306 28.3834 12.7191 28.3047L16.8798 27.1699C17.0197 27.1318 17.1473 27.0578 17.2498 26.9552L25.8521 18.3529L21.6477 14.1484Z" fill="#666666"/>
</svg>
