<svg width="24" height="24" viewBox="0 0 24 24" fill="none" xmlns="http://www.w3.org/2000/svg">
<path d="M5.5998 12.7992H4.7998V11.1992H5.5998C6.04163 11.1992 6.3998 11.5574 6.3998 11.9992C6.3998 12.441 6.04163 12.7992 5.5998 12.7992Z" fill="#666666"/>
<path d="M11.2002 15.9992V11.1992H12.0002C12.442 11.1992 12.8002 11.5574 12.8002 11.9992V15.1992C12.8002 15.641 12.442 15.9992 12.0002 15.9992H11.2002Z" fill="#666666"/>
<path fill-rule="evenodd" clip-rule="evenodd" d="M1.60001 2.4C1.60001 1.07452 2.67452 0 4.00001 0H17.1314L22.4 5.26862V21.6C22.4 22.9254 21.3254 24 20 24H4.00001C2.67452 24 1.60001 22.9254 1.60001 21.6V2.4ZM5.60001 9.6H3.20001V17.6H4.80001V14.4H5.60001C6.92549 14.4 8.00001 13.3255 8.00001 12C8.00001 10.6745 6.92549 9.6 5.60001 9.6ZM12 9.6H9.60001V17.6H12C13.3255 17.6 14.4 16.5254 14.4 15.2V12C14.4 10.6745 13.3255 9.6 12 9.6ZM16 17.6V9.6H20.8V11.2H17.6V12.8H19.2V14.4H17.6V17.6H16Z" fill="#666666"/>
</svg>
